# xmcd
#
# Track frame offsets: 
#        150
#        18690
#        34290
#        49530
#        69554
#        90307
#        113689
#        139928
#        155813
#        171802
#        199171
#        219505
#        234686
#        261933
#        279420
#        300579
#
# Disc length: 4473 seconds
#
# Revision: 0
# Processed by: cddbd v1.5.2PL0 Copyright (c) Steve Scherf et al.
# Submitted via: ExactAudioCopyFreeDBPlugin 1.0
#
DISCID=e5117710
DTITLE=Stockfisch Records - Closer To The Music
DYEAR=2006
DGENRE=Country
TTITLE0=Allan Taylor - Kerouac’s Dream
TTITLE1=Rebecca Pidgeon - Underground
TTITLE2=Silje Nergaard - Once I Held A Moon
TTITLE3=Mike Silver - Reaching Out For Love
TTITLE4=Livingston Taylor - Isn't She Lovely
TTITLE5=Jacintha - So Nice
TTITLE6=Steve Strauss - Flesh and Blood
TTITLE7=Eva Cassidy - Ain't No Sunshine
TTITLE8=Ewen Carruthers - Paris
TTITLE9=Phil Collins - In the Air Tonight
TTITLE10=David Roth - Street of London
TTITLE11=Vern Gosdin - Nickels and Dimes and Love
TTITLE12=Dire Straits - You and Your Friend
TTITLE13=GLBB - How Deep Is Your Love
TTITLE14=David Munyon - Four Wild Horses
TTITLE15=Sara K. - Turned My Upside Down
EXTD=
EXTT0=
EXTT1=
EXTT2=
EXTT3=
EXTT4=
EXTT5=
EXTT6=
EXTT7=
EXTT8=
EXTT9=
EXTT10=
EXTT11=
EXTT12=
EXTT13=
EXTT14=
EXTT15=
PLAYORDER=
